<?xml version="1.0" encoding="utf-8"?>
<!-- Generator: Adobe Illustrator 27.9.1, SVG Export Plug-In . SVG Version: 6.00 Build 0)  -->
<svg version="1.1" xmlns="http://www.w3.org/2000/svg" xmlns:xlink="http://www.w3.org/1999/xlink" x="0px" y="0px"
	 viewBox="0 0 500 500" style="enable-background:new 0 0 500 500;" xml:space="preserve">
<style type="text/css">
	.st0{display:none;}
	.st1{display:inline;fill:#FFFFFF;}
	.st2{display:inline;fill:url(#SVGID_1_);}
	.st3{display:inline;fill:#F58466;}
	.st4{display:inline;}
	.st5{fill:#E05B41;}
	.st6{fill:#FED09E;}
	.st7{display:inline;opacity:0.2;fill:#212A3C;}
	.st8{display:inline;opacity:0.3;fill:url(#SVGID_00000114790203678415146950000015485096344746913694_);}
	.st9{display:inline;opacity:0.3;fill:#FFFFFF;}
	.st10{fill:#34B1E4;}
	.st11{fill:#D7DF23;}
	.st12{fill:#F9F98F;}
	.st13{opacity:0.2;fill:#212A3C;}
	.st14{display:inline;opacity:0.3;fill:url(#SVGID_00000119096510551968546770000012397152361724953273_);}
	.st15{display:inline;fill:#FFC585;}
	.st16{fill:#F7941E;}
	.st17{fill:#FBB040;}
	.st18{fill:#F15A29;}
	.st19{opacity:0.3;fill:url(#SVGID_00000134239988727584214720000003737142180154784391_);}
	.st20{opacity:0.3;fill:#FFFFFF;}
	.st21{fill:#E6E7E8;}
	.st22{fill:#D1D3D4;}
	.st23{fill:#A7A9AC;}
	.st24{opacity:0.1;fill:#212A3C;}
	.st25{display:inline;opacity:0.5;fill:url(#SVGID_00000148640600127638593840000014852932432351660956_);}
	.st26{fill:#196EA5;}
	.st27{fill:#27AAE1;}
	.st28{fill:#5FB2E0;}
	.st29{fill:#A4DBF4;}
	.st30{fill:#0E577F;}
	.st31{opacity:0.3;fill:url(#SVGID_00000006689734574454943480000003085918868331430568_);}
	.st32{fill:#EA3232;}
	.st33{display:inline;opacity:0.3;fill:url(#SVGID_00000080909435527487013560000001875858622030257070_);}
	.st34{display:inline;fill:#FFF4E9;}
	.st35{fill:#DB8231;}
	.st36{fill:#FFE1C5;}
	.st37{fill:#F9B673;}
	.st38{opacity:0.5;fill:url(#SVGID_00000000183902344070057310000009304040037805645211_);}
	.st39{opacity:0.4;fill:#FFFFFF;}
	.st40{display:inline;opacity:0.3;fill:url(#SVGID_00000023991801475108326770000014771055615984733118_);}
	.st41{fill:#EF4136;}
	.st42{opacity:0.3;fill:#414042;}
	.st43{display:inline;opacity:0.3;fill:url(#SVGID_00000156587782194800997100000016284682536802695331_);}
	.st44{fill:#F9FBFC;}
</style>
<g id="BACKGROUND" class="st0">
	<rect transform="matrix(-1.836970e-16 1 -1 -1.836970e-16 500 5.684342e-14)" class="st1" width="500" height="500"/>
</g>
<g id="OBJECTS">
	<g class="st0">
		<radialGradient id="SVGID_1_" cx="250" cy="250" r="250" gradientUnits="userSpaceOnUse">
			<stop  offset="0" style="stop-color:#03384A"/>
			<stop  offset="1" style="stop-color:#010F1E"/>
		</radialGradient>
		<rect class="st2" width="500" height="500"/>
	</g>
	<g class="st0">
		
			<ellipse transform="matrix(0.2298 -0.9732 0.9732 0.2298 -39.5605 211.8667)" class="st3" cx="114.07" cy="130.93" rx="68.41" ry="68.41"/>
		<g class="st4">
			<path class="st5" d="M126.87,162.31c-9.61,0-20.48-0.42-21.64,0c-1.16,0.42-5.28,3.17-14.57,3.17c-9.29,0-18.16-4.01-23.12-4.75
				c-4.08-0.61-12.23-2.14-16.11-2.32c5.38,12.25,14.24,22.61,25.34,29.85c10.21,0.25,21.44,0.44,26.77,0.23
				c7.71-0.29,35.17-1.71,51.18-2.54c8.19-6.06,14.97-13.9,19.78-22.95C164.82,162.82,134.89,162.31,126.87,162.31z"/>
			<path class="st5" d="M50.36,106.04h0.61c0,0,9.08,1.37,9.92,1.37c0.84,0,12.25,0,12.25,0l10.24-0.21l35.79-0.74l12.25-1.06
				c0,0,15.73-1.05,16.68-1.05s18.05,1.69,18.58,1.69c0.53,0,6.44-0.21,6.44-0.21l4.23-0.92c-2.14-5.19-4.89-10.07-8.18-14.53
				c-1.27-0.11-2.5-0.24-3.44-0.39c-3.38-0.53-9.71,0-12.77,0.32c-3.06,0.32-44.45-0.11-44.45-0.11s-3.38,0.53-4.22,0.63
				c-0.84,0.11-11.72-0.42-12.25-0.63c-0.53-0.21-7.92-0.95-8.34-1.06c-0.42-0.11-7.07-0.63-8.23-1.16
				c-1.16-0.53-4.01-0.63-4.01-0.63l-11.24,1.43C56.14,93.98,52.8,99.78,50.36,106.04z"/>
		</g>
		<g class="st4">
			<path class="st6" d="M56.28,111.7h3.66l18.86-2.25c0,0,14.36-1.41,16.61-1.69c2.25-0.28,7.88-0.28,7.88-0.28
				s26.18-0.28,27.59-0.28c1.41,0,18.58-1.13,18.58-1.13s10.42,0.28,11.82,0.28c1.41,0,11.26,1.41,12.95,1.69
				c0.91,0.15,2.87,0.38,4.5,0.57c-0.66-1.92-1.41-3.8-2.23-5.63c-0.44,0-0.84,0-1.14,0c-1.69,0-5.35,0-6.76,0
				c-1.41,0-2.53,0-3.66,0c-1.13,0-17.74,0-17.74,0l-4.22-0.28c0,0-7.6-0.56-10.42-0.84c-2.82-0.28-7.32,0-8.73,0
				c-1.41,0-10.98,0-12.67,0c-1.69,0-18.58,0.56-20.27,0.84c-1.69,0.28-7.04,0.56-9.01,0.84c-1.97,0.28-5.91,0-8.45,0
				c-2.53,0-4.79,0.28-4.79,0.28l-8.45,0.84l-9.37,0.11c-0.7,1.68-1.33,3.4-1.89,5.14C52.12,110.83,56.28,111.7,56.28,111.7z"/>
			<path class="st6" d="M148.62,182.73c0,0-14.36,1.41-16.61,1.69c-2.25,0.28-7.88,0.28-7.88,0.28s-26.18,0.28-27.59,0.28
				c-1.41,0-18.58,1.13-18.58,1.13s-2.05-0.06-4.46-0.12c1.54,1.13,3.13,2.21,4.76,3.21c1.2,0,1.96,0,1.96,0l4.22,0.28
				c0,0,7.6,0.56,10.42,0.84c2.82,0.28,7.32,0,8.73,0c1.41,0,10.98,0,12.67,0c1.69,0,18.58-0.56,20.27-0.84
				c1.69-0.28,7.04-0.56,9.01-0.85c1.27-0.18,3.35-0.13,5.36-0.07c3.35-2.14,6.51-4.56,9.43-7.24L148.62,182.73z"/>
			<path class="st6" d="M171.18,160.5c-5.08,0-8.75,0-11.01,0c-2.26,0-9.32-0.22-15.53-0.66c-4.55-0.32-9.09-0.83-13.64-1.15
				c-4.24-0.29-8.49-0.5-12.74-0.7c-14.61-0.68-29.45-2.95-44.06-2.29c-7.85,0.36-15.71,0.56-23.57,0.79
				c0.4,0.98,0.81,1.95,1.25,2.91c0.93,0,1.63,0,1.84,0c0.85,0,2.82,0.66,5.37,1.1c3.86,0.67,7.94,1.06,11.66,2.35
				c7.47,2.59,14.89,6.61,23.05,5.81c3.27-0.32,6.73-0.53,9.89-1.42c5.38-1.52,10.54-2.73,16.16-3.06
				c5.53-0.33,11.07-0.15,16.6-0.15c0.01,0,6.5,0,9.32,0c2.82,0,12.99,0.66,15.25,0.66c2.26,0,6.49,0.44,7.91,0.88
				c1.02,0.32,2.9,0.41,3.88,0.43c1.07-1.78,2.06-3.62,2.97-5.5C174.31,160.5,172.74,160.5,171.18,160.5z M90.67,164.84
				c-3.33-0.11-6-1.43-5.94-2.95c0.05-1.52,2.79-2.66,6.13-2.55c3.33,0.11,6,1.43,5.94,2.95C96.75,163.82,94.01,164.96,90.67,164.84
				z"/>
			<path class="st6" d="M57.97,91.81c0.45-0.03,0.92-0.06,1.41-0.09c3.94-0.28,16.05,0,19.14,0c3.1,0,18.86,1.13,22.24,1.13
				c3.38,0,17.74,0.28,23.65,0.28s14.64,2.53,32.09,2.82c5.64,0.09,11.25,0,16.26-0.15c-3.14-5.23-6.96-10-11.34-14.2
				c-0.05,0-0.09-0.01-0.14-0.01c-5.63-0.28-10.7,0.28-16.33,0.84c-8.16,0.84-16.33-0.56-24.49-1.13
				c-13.23-1.13-27.59-2.25-40.82-1.13c-4.41,0.38-8.78,1-13.16,1.64C63.34,84.86,60.49,88.21,57.97,91.81z M99.2,82.84
				c7.77,0.26,14.02,2.15,13.95,4.21c-0.07,2.07-6.43,3.53-14.2,3.27c-7.77-0.26-14.02-2.14-13.95-4.21
				C85.06,84.04,91.42,82.58,99.2,82.84z"/>
			<path class="st6" d="M49.52,130.57c0.84,0,4.5,0.56,6.76,0.84c6.99,0.87,14.09,0.34,21.04,1.49c5.78,0.95,11.79,1.18,17.5,2.35
				c4.05,0.82,7.81,2.75,11.7,4.09c10.98,3.78,22.93,4.22,34.25,1.75c5.5-1.2,10.71-3.35,16.1-4.95c5.33-1.58,10.74-2.09,16.23-2.75
				c0,0,5.19,0,9.31,0c0.03-0.82,0.06-1.63,0.06-2.45c0-0.88-0.03-1.75-0.07-2.62c-5.8-0.49-11.58-0.64-17.41-0.9
				c-7.98-0.36-14.81-4.02-22.19-6.56c-5.85-2.02-11.94-3.48-18.15-3.6c-9.87-0.2-18.39,4.62-27.84,6.6
				c-7.09,1.48-14.57,0.83-21.76,0.81c-8.98-0.03-17.96,0-26.95,0c-0.77,0-1.48,0-2.15,0c-0.18,2-0.29,4.02-0.29,6.06
				C47.65,130.63,49.24,130.57,49.52,130.57z M126.34,123.53c8.7,0.29,15.65,3.74,15.52,7.7c-0.13,3.96-7.29,6.94-16,6.65
				c-8.7-0.29-15.65-3.74-15.52-7.7C110.47,126.22,117.63,123.24,126.34,123.53z"/>
		</g>
		<path class="st7" d="M60.1,172.97c15.75,20.19,42.24,30.67,68.89,24.71c36.87-8.24,60.08-44.81,51.83-81.68
			c-2.13-9.55-6.18-18.17-11.63-25.58C152.71,116.42,106.17,181.75,60.1,172.97z"/>
		<path class="st7" d="M63.61,177.1c16,17.46,40.62,26.12,65.39,20.59c34.73-7.76,57.33-40.67,52.94-75.27
			C163.56,148.88,120.89,196.98,63.61,177.1z"/>
		
			<linearGradient id="SVGID_00000158725407518833786850000015959267049865010097_" gradientUnits="userSpaceOnUse" x1="-25.8213" y1="-50.9158" x2="1.783" y2="-0.1209" gradientTransform="matrix(0.8183 -0.1424 0.1645 0.8356 109.9286 121.3328)">
			<stop  offset="0" style="stop-color:#FFFFFF"/>
			<stop  offset="1" style="stop-color:#FFFFFF;stop-opacity:0"/>
		</linearGradient>
		<path style="display:inline;opacity:0.3;fill:url(#SVGID_00000158725407518833786850000015959267049865010097_);" d="M133.67,77.7
			c9.1,14.99-0.69,37.57-21.88,50.43c-21.18,12.86-45.73,11.14-54.83-3.85c-9.1-14.99,0.69-37.57,21.88-50.43
			C100.01,60.99,124.57,62.71,133.67,77.7z"/>
		<path class="st9" d="M114.01,76.03c5.44,8.95-1.34,23-15.14,31.38c-13.8,8.38-29.4,7.92-34.83-1.04
			c-5.44-8.95,1.34-23,15.14-31.38C92.98,66.61,108.57,67.07,114.01,76.03z"/>
	</g>
	<g class="st0">
		<g class="st4">
			<path class="st10" d="M291.69,119.83c0,24.41-19.79,44.19-44.19,44.19c-24.41,0-44.2-19.79-44.2-44.19
				c0-24.41,19.79-44.19,44.2-44.19C271.9,75.64,291.69,95.43,291.69,119.83z"/>
			<g>
				<path class="st11" d="M250.29,148.45c1.36-2.41-0.15-7.38-0.15-8.59c0-1.21-6.78-4.52-8.44-5.12c-1.66-0.6-2.41,0.3-2.41,0.3
					s-9.79,2.86-11,4.82c-1.21,1.96-8.89-1.96-9.19-3.77c-0.3-1.81-2.11-7.23-2.26-7.84c-0.15-0.6-8.14-6.18-9.04-6.33
					c-0.42-0.07-2.28,0.59-4.34,1.62c1.74,20.85,17.94,37.57,38.55,40.12c0.15-2.6-0.24-5.01-0.01-8.14
					c0.3-4.07,0.75-2.26,3.77-3.77C248.79,150.26,248.94,150.86,250.29,148.45z"/>
				<path class="st11" d="M258.68,152.27c-0.61,1.37-0.55,2.52,1.1,3.03c1.21,0.37,2.3-0.03,3.47-0.3c1.02-0.24,2.39,0.05,3.22-0.68
					c2.51-2.18,0.45-4.17-1.65-5.68c-0.66-0.47-1.35-0.9-2.02-1.37C259.88,145.23,259.37,150.7,258.68,152.27z"/>
				<path class="st11" d="M270.48,82.08c-2.53,3.68-4.63,8.44-2.71,12.58c3.77,8.14,9.79,4.82,4.67,16.57
					c-5.12,11.75-8.89,6.63-8.29,18.23c0.6,11.6,2.71,18.53,6.63,18.38s4.97-15.82,15.22-14.31c1.22,0.18,2.29,0.47,3.23,0.81
					c1.58-4.55,2.45-9.43,2.45-14.51C291.69,103.85,283.2,89.85,270.48,82.08z"/>
				<path class="st11" d="M218.5,92.71c3.62,2.11,4.37,1.96,9.04,8.44c4.67,6.48-1.51,7.98-3.01,13.56
					c-1.51,5.58-1.21,9.49,0.9,11.3c2.11,1.81,15.07,1.05,14.16-3.31c-0.9-4.37-1.05-10.25-1.05-15.37s3.77-1.81,8.74-3.92
					c4.97-2.11,4.07-11,4.07-12.66c0-1.66-4.07-7.99-7.08-9.79c-1.27-0.76-3.4-2.6-5.43-4.46c-10.31,2.05-19.32,7.68-25.69,15.54
					C214.61,92.42,216.54,91.56,218.5,92.71z"/>
				<path class="st11" d="M265.54,104.32c-0.86-1.17-2.32-1.7-3.74-1.68c-0.5,0.01-1,0.09-1.47,0.24c-2.11,0.67-3.4,2.85-3.66,4.99
					c-0.22,1.82,0.75,8.29,0.9,8.89c0.15,0.6,0.3,2.26,0.15,3.47c-0.08,0.65,1.74-0.25,1.93-0.34c1.17-0.56,2.3-1.18,2.98-2.32
					c0.76-1.27,0.91-2.8,1.48-4.15C265.29,110.67,267.63,107.19,265.54,104.32z"/>
			</g>
			<g>
				<path class="st12" d="M284.24,126.6c1.02-0.4,1.67-0.68,1.95-1.82c0.58-2.28-0.66-4.85-2.32-6.37
					c-0.96-0.89-2.21-1.36-3.54-1.19c-0.42,0.06-0.84,0.16-1.27,0.3c-1.79,0.59-3.6,1.87-4.6,3.29c-1.04,1.49-0.78,3.34-0.82,5.07
					c-0.03,1.26-0.1,2.51-0.22,3.76c-0.11,1.18-1.42,3.25,0.15,3.91c3.3,1.39,4.48-2.25,6.41-4.28
					C281.12,128.08,282.72,127.21,284.24,126.6z"/>
				<path class="st12" d="M275.41,85.58c-0.75,1.15-1.27,2.63-1.52,3.68c-0.53,2.17,1.21,5.02,3.23,5.8
					c1.72,0.66,1.14,2.27,0.83,3.7c-0.45,2.09-1.21,4.15-1.21,6.31c0,2.39,0.13,3.54,2.81,3.64c1.12,0.04,2.35,0.16,2.79-1.07
					c0.5-1.36,0.23-3.07-0.03-4.46c-0.23-1.21-0.08-1.66,0.3-2.79c0.33-0.98,0.75-2.04,0.75-3.09c0-0.83-0.9-2.11-1.28-3.24
					c-0.3-0.89-0.17-0.94-0.37-2.18C279.83,89.58,277.72,87.46,275.41,85.58z"/>
				<path class="st12" d="M242.32,140.51c-1.34-0.06-2.55,0.71-3.79,1.09c-0.8,0.25-1.61,0.48-2.41,0.72
					c-0.68,0.2-1.35,0.41-2.02,0.65c-2.92,1.03-5.75,2.59-7.17,5.47c-0.55,1.11,3.49,1.32,3.93,1.35c2.07,0.14,4.07-0.44,6.1-0.75
					c2.12-0.32,4.27-0.39,6.38-0.79c1.86-0.34,3.19-1.39,3.67-3.28C247.69,142.28,244.7,140.62,242.32,140.51z"/>
				<path class="st12" d="M233.79,91.11c-0.42-0.11-1.09-0.69-1.51-0.66c-2.2,0.15-0.75,3.71,0.01,4.53
					c1.32,1.41,2.9,2.99,4.88,1.49c0.81-0.6,1.63,0.33,2.32,0.7c0.33,0.18,2.56,1.38,2.91,1.1c0.93-0.73,2.05-1.41,2.71-2.41
					c1.54-2.32,1.12-5.59,0.2-8.04c-0.95-2.54-3.65-4.59-6.05-5.66c-0.45-0.2-0.92-0.28-1.37-0.25c-1.75,0.1-2.88,1.74-2.33,3.41
					c0,0.01,0.61,1.81,1.51,3.21c0.91,1.41,0,1.61-0.1,2.21C236.83,91.66,234.35,91.25,233.79,91.11z"/>
			</g>
		</g>
		<g class="st4">
			<path class="st13" d="M213.2,147.7c8.1,9.96,20.45,16.32,34.29,16.32c24.41,0,44.19-19.79,44.19-44.19
				c0-9.92-3.26-19.07-8.78-26.44C271.16,111.49,242.32,150.44,213.2,147.7z"/>
			<path class="st13" d="M216.41,151.25c7.98,7.9,18.96,12.78,31.08,12.78c24.41,0,44.19-19.79,44.19-44.19
				c0-1.63-0.09-3.24-0.27-4.82C278.75,132.61,251.97,161.09,216.41,151.25z"/>
		</g>
		
			<linearGradient id="SVGID_00000172431316110632169970000016252097754901749432_" gradientUnits="userSpaceOnUse" x1="145.3793" y1="-12.9862" x2="163.2133" y2="19.8304" gradientTransform="matrix(0.8183 -0.1424 0.1645 0.8356 109.9286 121.3328)">
			<stop  offset="0" style="stop-color:#FFFFFF"/>
			<stop  offset="1" style="stop-color:#FFFFFF;stop-opacity:0"/>
		</linearGradient>
		<path style="display:inline;opacity:0.3;fill:url(#SVGID_00000172431316110632169970000016252097754901749432_);" d="M261.16,86.7
			c5.88,9.68-0.45,24.27-14.13,32.58c-13.69,8.31-29.55,7.2-35.43-2.49c-5.88-9.68,0.45-24.27,14.13-32.58
			C239.41,75.91,255.28,77.02,261.16,86.7z"/>
		<path class="st9" d="M248.45,85.62c3.51,5.78-0.87,14.86-9.78,20.27c-8.92,5.41-18.99,5.11-22.5-0.67
			c-3.51-5.78,0.87-14.86,9.78-20.28C234.87,79.54,244.94,79.84,248.45,85.62z"/>
	</g>
	<g class="st0">
		<path class="st15" d="M250.16,248.83c-62.94,8.33-112.71,28.46-111.15,44.97c1.56,16.5,53.86,23.13,116.8,14.81
			c62.95-8.33,112.71-28.46,111.15-44.96C365.4,247.14,313.11,240.51,250.16,248.83z M254.07,300.92
			c-38.55,5.1-80.25,2.89-81.58-11.25c-1.34-14.13,38.91-27.18,77.46-32.29c38.55-5.09,80.24-2.89,81.58,11.25
			C332.87,282.77,292.62,295.82,254.07,300.92z"/>
		<g class="st4">
			<g>
				<path class="st16" d="M321.49,267.78c0,40.75-31,73.78-69.25,73.78c-38.24,0-69.25-33.03-69.25-73.78
					c0-40.75,31-73.78,69.25-73.78C290.48,194,321.49,227.03,321.49,267.78z"/>
				<g>
					<path class="st17" d="M283.31,229.23c-3.33-0.98-6.77-1.36-10.16-1.99c-7.65-1.42-15.41-3.21-23.22-2.98
						c-3.75,0.11-21.77,1.44-19.06,9.34c0.88,2.57,4.38,3.44,6.5,4.29c5.39,2.16,11.27,3.16,17.01,2.28
						c3.78-0.58,7.34-2.38,11.18-2.54c4.44-0.19,8.89-0.26,13.34-0.3c0.95-0.01,4.47,0.26,7.56,0c2.88-0.25,5.37-0.96,5.01-2.79
						C290.85,231.49,285.66,229.92,283.31,229.23z"/>
					<path class="st5" d="M308.44,224.69c-12.57-18.58-33.05-30.69-56.2-30.69c-20.09,0-38.18,9.13-50.82,23.69
						c15.23-0.6,30.57-0.77,45.44-4.45c4.05-1.01,8.12-2.34,12.35-2.2c9.64,0.32,18.44,4.87,27.23,8.44
						C292.41,221.91,301.1,225.39,308.44,224.69z"/>
					<path class="st5" d="M303.94,280.7c-2.58-0.29-5.38-1.06-7.97-0.45c-1.8,0.42-5.19,2.6-2.61,4.66
						c0.69,0.55,2.62,0.67,3.46,0.84c5.58,1.15,11.41,2.08,17.06,2.79c1.56,0.2,3.13,0.31,4.7,0.38c0.77-2.75,1.39-5.58,1.86-8.45
						C314.96,281.12,309.43,281.32,303.94,280.7z"/>
					<path class="st5" d="M306.7,298.14c-2.76-0.07-29.8-5.16-30.69-1.54c-0.75,3.08-2.99,10.38-3.74,12.3
						c-0.75,1.92-7.49,4.23-7.49,4.23s-3.74-0.38-8.98,0.77c-17.13,3.77-33.33-23.89-49.4-11.53c-3,2.31-10.11,1.54-13.1,2.69
						c-0.25,0.1-0.48,0.16-0.69,0.22c12.05,21.71,34.24,36.29,59.63,36.29c27.77,0,51.7-17.42,62.74-42.55
						C312.47,298.55,309.71,298.22,306.7,298.14z"/>
					<path class="st17" d="M237.64,283.24c-3.95-0.09-8.13-1.21-12.04-0.19c-2.3,0.6-6.16,2.72-2.77,5.06
						c2.1,1.45,5.18,0.69,7.54,1.2c2.98,0.64,5.79,1.96,8.54,3.29c6.01,2.9,11.47,5.48,18.28,3.67c4.53-1.21,8.66-2.17,11.61-6.41
						c1.64-2.35,2.33-6.24,4.71-7.93c-3.23-2-7.35-0.52-10.74,0.22C254.56,283.95,245.97,283.44,237.64,283.24z"/>
					<path class="st18" d="M202.09,238.01c2.59-0.14,5.47,0.16,7.94-0.88c1.71-0.71,4.75-3.43,1.89-5.04
						c-0.76-0.43-2.68-0.22-3.54-0.25c-5.48-0.2-11.15-0.16-16.65,0.05c-1.43,2.72-2.69,5.56-3.79,8.48
						C192.58,239.14,197.31,238.28,202.09,238.01z"/>
					<path class="st18" d="M186.93,264.32c4.86,1.15,5.24,0.39,11.6,2.31c6.36,1.92,16.1,1.92,17.59,2.3
						c1.5,0.38,4.49,0.38,5.62,0.38c1.12,0,10.11,0,13.1,0c2.99,0,21.33,0,22.83,0c1.5,0,11.23-0.77,14.22-1.15
						c3-0.38,10.48-0.77,10.48-0.77s0.75,0,8.61-1.15c7.86-1.15,16.47-2.69,19.83-0.77c1.87,1.07,6.62,1.54,10.66,1.95
						c-0.02-4.1-0.36-8.11-0.98-12.02l-17.54-4.91l-17.59,1.54c0,0-9.73,5.38-12.35,6.15c-2.62,0.77-6.36,0.38-8.24,0.38
						c-1.87,0-11.97-0.77-11.97-0.77s-7.49-1.92-14.22-1.92c-6.74,0-22.08-0.77-24.33,0c-2.25,0.77-7.49,0.77-8.61,0.77
						c-0.99,0-16.89,0-21.86,0c-0.34,2.37-0.57,4.77-0.69,7.21C184.08,263.8,185.23,263.92,186.93,264.32z"/>
				</g>
				<path class="st17" d="M230.96,245.92c0,1.83-3.89,3.31-8.7,3.31c-4.81,0-8.7-1.48-8.7-3.31c0-1.83,3.89-3.31,8.7-3.31
					C227.07,242.61,230.96,244.09,230.96,245.92z"/>
				<path class="st17" d="M304.67,272.58c0,1.17-2.48,2.11-5.54,2.11s-5.55-0.95-5.55-2.11c0-1.17,2.48-2.11,5.55-2.11
					S304.67,271.42,304.67,272.58z"/>
				<path class="st17" d="M205.67,277.19c0,1.17-2.48,2.11-5.55,2.11c-3.06,0-5.54-0.95-5.54-2.11c0-1.16,2.48-2.11,5.54-2.11
					C203.19,275.08,205.67,276.03,205.67,277.19z"/>
				<path class="st17" d="M310.73,241.94c0,1.01-2.14,1.82-4.79,1.82c-2.65,0-4.79-0.82-4.79-1.82c0-1.01,2.14-1.82,4.79-1.82
					C308.59,240.11,310.73,240.93,310.73,241.94z"/>
				<path class="st17" d="M268.36,304.57c0,1.01-2.15,1.82-4.79,1.82c-2.65,0-4.79-0.82-4.79-1.82c0-1.01,2.14-1.82,4.79-1.82
					C266.21,302.75,268.36,303.57,268.36,304.57z"/>
				<path class="st17" d="M212.63,223.3c0,1.01-2.15,1.82-4.79,1.82c-2.65,0-4.79-0.82-4.79-1.82c0-1.01,2.14-1.82,4.79-1.82
					C210.49,221.48,212.63,222.29,212.63,223.3z"/>
			</g>
			<g>
				<path class="st13" d="M198.64,314.48c12.7,16.53,31.99,27.08,53.6,27.08c38.25,0,69.25-33.03,69.25-73.78
					c0-16.72-5.23-32.13-14.02-44.5C287.6,255.22,243.56,316.4,198.64,314.48z"/>
				<path class="st13" d="M204.71,321.41c12.4,12.48,29.12,20.15,47.53,20.15c38.25,0,69.25-33.03,69.25-73.78
					c0-2.38-0.12-4.73-0.32-7.06C300.18,290.72,258.92,335.01,204.71,321.41z"/>
			</g>
			
				<linearGradient id="SVGID_00000170959436843021670530000005413117889875906719_" gradientUnits="userSpaceOnUse" x1="106.082" y1="133.8754" x2="137.0377" y2="190.8373" gradientTransform="matrix(0.8183 -0.1424 0.1645 0.8356 109.9286 121.3328)">
				<stop  offset="0" style="stop-color:#FFFFFF"/>
				<stop  offset="1" style="stop-color:#FFFFFF;stop-opacity:0"/>
			</linearGradient>
			<path style="opacity:0.3;fill:url(#SVGID_00000170959436843021670530000005413117889875906719_);" d="M276.98,212
				c9.85,17.29-0.75,43.34-23.69,58.18c-22.94,14.84-49.52,12.85-59.37-4.44c-9.85-17.29,0.75-43.34,23.68-58.17
				C240.55,192.73,267.13,194.72,276.98,212z"/>
			<path class="st20" d="M255.7,210.07c5.89,10.33-1.46,26.54-16.4,36.2c-14.94,9.67-31.82,9.13-37.71-1.2
				c-5.89-10.33,1.45-26.54,16.4-36.2C232.93,199.21,249.81,199.74,255.7,210.07z"/>
		</g>
		<path class="st15" d="M366.96,263.64c-0.88-9.31-17.92-15.48-43.9-17.59c0.25,4.61,0.22,9.26-0.11,13.86
			c5.1,2.15,8.23,5.03,8.58,8.73c1.34,14.14-38.91,27.19-77.46,32.28c-38.55,5.1-80.25,2.89-81.58-11.25
			c-0.31-3.31,1.68-6.56,5.37-9.66c-1.41-4.28-1.76-9.3-1.66-13.99c-23.57,8.67-38.03,18.77-37.18,27.79
			c1.56,16.5,53.86,23.13,116.8,14.81C318.76,300.28,368.52,280.15,366.96,263.64z"/>
	</g>
	<g class="st0">
		<g class="st4">
			
				<ellipse transform="matrix(0.9732 -0.2298 0.2298 0.9732 -49.0258 60.7006)" class="st21" cx="236.15" cy="240.88" rx="43.76" ry="43.76"/>
			<g>
				<path class="st22" d="M241.37,253.54c0,5.95,4.82,10.77,10.77,10.77c5.95,0,10.77-4.82,10.77-10.77s-4.82-10.77-10.77-10.77
					C246.19,242.77,241.37,247.6,241.37,253.54z"/>
				<path class="st23" d="M261.82,220.77c0-3.34-2.71-6.06-6.06-6.06c-3.35,0-6.06,2.71-6.06,6.06c0,3.35,2.71,6.06,6.06,6.06
					C259.1,226.83,261.82,224.12,261.82,220.77z"/>
				<path class="st22" d="M265.9,244.46c0,6.65,4.22,12.3,10.11,14.48c2.5-5.51,3.9-11.61,3.9-18.05c0-4.01-0.55-7.88-1.56-11.57
					C271.25,230.7,265.9,236.95,265.9,244.46z"/>
				<path class="st22" d="M206.82,251.99c0-1.35-1.09-2.44-2.44-2.44c-1.35,0-2.44,1.09-2.44,2.44c0,1.35,1.09,2.44,2.44,2.44
					C205.73,254.43,206.82,253.34,206.82,251.99z"/>
				<path class="st22" d="M264.26,233.69c0-1.35-1.09-2.44-2.44-2.44c-1.35,0-2.44,1.09-2.44,2.44c0,1.35,1.09,2.44,2.44,2.44
					C263.17,236.13,264.26,235.03,264.26,233.69z"/>
				<path class="st22" d="M209.35,262.97c0,3.35,2.71,6.06,6.06,6.06c3.35,0,6.06-2.71,6.06-6.06s-2.71-6.06-6.06-6.06
					C212.07,256.91,209.35,259.62,209.35,262.97z"/>
				<path class="st22" d="M232.66,211.6c0,2.14,1.73,3.87,3.87,3.87c2.14,0,3.87-1.73,3.87-3.87c0-2.14-1.73-3.87-3.87-3.87
					C234.39,207.73,232.66,209.46,232.66,211.6z"/>
				<path class="st23" d="M250.47,282.23c-1.25-7.28-7.57-12.82-15.2-12.82c-7.42,0-13.61,5.24-15.1,12.21
					c4.95,1.95,10.34,3.02,15.98,3.02C241.17,284.64,245.98,283.78,250.47,282.23z"/>
				<path class="st23" d="M211.41,239.87c4.55,0,8.25-3.69,8.25-8.25c0-4.55-3.69-8.25-8.25-8.25c-4.55,0-8.25,3.69-8.25,8.25
					C203.17,236.18,206.86,239.87,211.41,239.87z"/>
				<path class="st22" d="M236.96,232.55c0-1.35-1.09-2.44-2.44-2.44c-1.35,0-2.44,1.09-2.44,2.44c0,1.35,1.09,2.44,2.44,2.44
					C235.86,234.99,236.96,233.9,236.96,232.55z"/>
				<path class="st22" d="M229.21,249.89c-2.14,0-3.87,1.73-3.87,3.87c0,2.14,1.73,3.87,3.87,3.87c2.14,0,3.87-1.73,3.87-3.87
					C233.08,251.62,231.34,249.89,229.21,249.89z"/>
			</g>
		</g>
		<g class="st4">
			<path class="st24" d="M271.53,215.14c-12.05,18.34-39.31,54.5-67.52,55.42c7.99,8.66,19.44,14.08,32.15,14.08
				c24.17,0,43.76-19.59,43.76-43.76C279.91,231.26,276.79,222.36,271.53,215.14z"/>
			<path class="st24" d="M279.82,238.23c-12.84,17.28-37.73,42.61-70.46,37.24c7.4,5.74,16.69,9.17,26.79,9.17
				c24.17,0,43.76-19.59,43.76-43.76C279.91,239.99,279.88,239.11,279.82,238.23z"/>
		</g>
		
			<linearGradient id="SVGID_00000064337003844750684700000003853806497261450412_" gradientUnits="userSpaceOnUse" x1="104.6335" y1="124.7302" x2="122.1775" y2="157.013" gradientTransform="matrix(0.8183 -0.1424 0.1645 0.8356 109.9286 121.3328)">
			<stop  offset="0" style="stop-color:#FFFFFF"/>
			<stop  offset="1" style="stop-color:#FFFFFF;stop-opacity:0"/>
		</linearGradient>
		<path style="display:inline;opacity:0.5;fill:url(#SVGID_00000064337003844750684700000003853806497261450412_);" d="
			M249.91,207.63c5.79,9.53-0.44,23.88-13.9,32.05c-13.46,8.18-29.07,7.08-34.85-2.45c-5.79-9.53,0.44-23.88,13.9-32.05
			C228.52,197.01,244.12,198.11,249.91,207.63z"/>
		<path class="st9" d="M237.41,206.57c3.45,5.69-0.85,14.62-9.62,19.95c-8.77,5.33-18.68,5.03-22.14-0.66
			c-3.46-5.69,0.85-14.62,9.62-19.95C224.05,200.58,233.96,200.88,237.41,206.57z"/>
	</g>
	<g>
		<g>
			<g>
				<path class="st26" d="M319.16,261.59c-0.55,38.19-31.96,68.71-70.16,68.16c-38.2-0.55-68.71-31.96-68.16-70.16
					c0.55-38.2,31.96-68.71,70.16-68.16C289.2,191.98,319.71,223.39,319.16,261.59z"/>
				<g>
					<path class="st27" d="M318.97,255.62c-5.23,0.14-10.43,0.1-15.56-1.23c-8.68-2.25-16.48-7.04-25.23-9.09
						c-11.84-2.78-24.45-3.18-36.52-2.01c-11.93,1.16-23.05,6.29-34.95,7.6c-8.33,0.92-16.78,0.47-25.2,0.08
						c-0.39,2.82-0.64,5.69-0.68,8.62c-0.02,1.48,0.02,2.95,0.09,4.42c3.65,0.05,7.3,0.11,10.95,0.16
						c18.22,0.26,35.81,6.62,53.86,8.59c12.38,1.35,24.88,0.43,37.25-0.68c5.32-0.48,9.82-3.74,15.09-4.24
						c4.5-0.43,9.02-0.49,13.54-0.59c0.53-0.01,3.59,0.01,7.21,0c0.18-1.87,0.31-3.75,0.33-5.65
						C319.19,259.58,319.11,257.59,318.97,255.62z"/>
					<path class="st27" d="M314,286.83c-3.06,0.57-7.39,1.46-9.22,2.26c-2.96,1.3-12.92,2.84-15.88,3.81
						c-2.96,0.97-7.36,0.23-7.36,0.23s-21.34-0.31-22.44-0.32c-1.1-0.02-13.21-2.21-16.13-3.94c-2.92-1.72-10.27-2.17-10.27-2.17
						l-23.86-3.71l-23.39,2.42c2.45,6.37,5.82,12.29,9.95,17.6c7.08,0.17,14.03,1.21,17.92,1.26c4.05,0.06,12.86,1.2,17.26,2.27
						c4.4,1.07,8.09,0.46,9.93,0.48c1.84,0.03,18.4-0.41,33.5-0.86c15.09-0.46,8.83,0.13,11.78-0.5c2.95-0.63,7.72,0.11,11.4,0.16
						c2.78,0.04,3.88,0.06,5.2-0.07C307.21,300.16,311.14,293.78,314,286.83z"/>
					<path class="st27" d="M190.36,225.57c10.84-2.93,28.49-5.99,45.45-1.48c27.12,7.22,34.87,5.53,44.47,3.52
						c9.6-2.02,15.49-2.29,17.7-2.26c1.23,0.02,6.87,0.1,11.65,0.17c-3.18-5.39-7.08-10.31-11.55-14.64
						c-1.46-0.17-2.87-0.3-3.93-0.32c-3.31-0.05-9.19-0.49-14.71-0.93c-5.51-0.44-16.53-2.04-18.37-2.06
						c-1.84-0.03-1.83-0.39-9.19-0.85c-7.35-0.46-19.46-2.79-24.61-3.23c-4.97-0.42-8.58-1.48-13.8-1.62
						C203.99,207.78,196.04,215.92,190.36,225.57z"/>
				</g>
				<path class="st28" d="M285.53,258.71c-0.08,5.49-12.08,9.76-26.81,9.55c-14.73-0.21-26.61-4.83-26.53-10.32
					c0.08-5.49,12.08-9.76,26.81-9.55C273.74,248.61,285.61,253.23,285.53,258.71z"/>
				<path class="st29" d="M273.76,258.54c-0.04,3.06-6.75,5.45-14.98,5.33c-8.23-0.12-14.86-2.7-14.82-5.76
					c0.04-3.06,6.75-5.45,14.98-5.33C267.17,252.9,273.81,255.48,273.76,258.54z"/>
				<path class="st28" d="M279.48,219.06c-0.12,3.33-7.46,5.76-16.4,5.44c-8.93-0.32-16.08-3.29-15.96-6.61
					c0.12-3.33,7.46-5.76,16.4-5.44C272.46,212.77,279.6,215.73,279.48,219.06z"/>
				<path class="st29" d="M272.34,218.8c-0.07,1.86-4.17,3.22-9.16,3.04c-4.99-0.18-8.98-1.84-8.91-3.69
					c0.07-1.86,4.17-3.22,9.16-3.04C268.42,215.28,272.41,216.94,272.34,218.8z"/>
				<path class="st29" d="M224.04,213.27c-0.05,1.44-3.24,2.5-7.12,2.36c-3.88-0.14-6.98-1.43-6.92-2.87
					c0.05-1.44,3.24-2.5,7.12-2.36C220.99,210.54,224.09,211.83,224.04,213.27z"/>
				<path class="st28" d="M215.07,259.07c-0.02,1.68-6.06,2.95-13.47,2.84c-7.42-0.11-13.41-1.55-13.38-3.23
					c0.02-1.68,6.06-2.95,13.47-2.84C209.1,255.95,215.09,257.4,215.07,259.07z"/>
				<path class="st28" d="M298.33,299.28c-0.02,1.49-5.37,2.62-11.95,2.52c-6.58-0.09-11.89-1.38-11.87-2.86
					c0.02-1.49,5.37-2.62,11.95-2.52C293.04,296.51,298.35,297.79,298.33,299.28z"/>
				<path class="st29" d="M240.43,295.9c-0.06,2.07-7.53,3.55-16.7,3.29c-9.17-0.25-16.55-2.14-16.49-4.21
					c0.06-2.07,7.54-3.54,16.7-3.29C233.1,291.94,240.48,293.83,240.43,295.9z"/>
			</g>
			<path class="st30" d="M317.13,277.22c-0.36,1.48-0.77,2.94-1.22,4.38c-1.91-0.04-3.82-0.04-5.73,0.05
				c-4.32,0.23-8.36,1.56-12.61,2.17c-5.88,0.85-12.43,1.66-18.37,1.65c-4.09,0-8.16-0.54-12.22-0.92c-3.43-0.32-7.14,0.1-10.5-0.7
				c-6.56-1.55-13.61-2.84-20.3-3.69c-8.32-1.06-16.79-2.78-25.13-3.4c-5.7-0.42-11.7-0.81-17.4-0.83
				c-3.4-0.01-6.77,0.06-10.16,0.12c-0.3,0-0.6,0.01-0.9,0.01c-0.18-0.8-0.37-1.6-0.52-2.42c5.82,0.01,11.83,0.71,17.48,1.08
				c11.46,0.75,22.9,1.79,34.38,2.1c5.98,0.16,11.58,1.77,17.47,2.6c4.14,0.59,7.94,1.18,12.1,0.97c6.54-0.32,13.07,0.06,19.61,0.22
				c6.01,0.15,11.91-0.49,17.89-0.56C306.46,280.02,311.83,278.57,317.13,277.22z M203.7,237.48c4.74-0.65,8.89-1.38,13.73-1.29
				c8.81,0.17,17.61,0.36,26.42,0.59c13.66,0.35,27.33-1.05,40.9,1.21c4.67,0.78,9.16,2.48,13.91,2.85
				c5.48,0.43,11.77-0.99,17.11,0.28c0.15,0.04,0.38,0.07,0.64,0.1c-0.52-1.79-1.13-3.55-1.79-5.27
				c-15.08,0.21-30.32-0.75-45.26-2.32c-7.93-0.83-15.9-1.97-23.86-2.44c-16.14-0.95-32.3-0.45-48.46-0.64
				c-3.09-0.04-6.17-0.1-9.26-0.19c-1.62,3.33-2.97,6.81-4.05,10.41C190.4,239.93,197.07,238.4,203.7,237.48z M229.03,194.68
				l10.85,2.48c0,0,7.54,0.29,8.28,0.3c0.74,0.01,11.94,1.28,13.04,1.48c1.1,0.2,10.63,2.54,11.37,2.56
				c0.74,0.01,6.61,0.65,7.9,0.67c1.08,0.01,5.61,0.34,7.39,0.55c-10.61-6.95-23.24-11.09-36.86-11.28
				C243.33,191.32,235.95,192.48,229.03,194.68z M265.62,313.06c-0.55-0.01-6.08,0.46-6.82,0.64c-0.74,0.18-8.85,1.71-8.85,1.71
				s-8.46-0.49-9.01-0.5c-0.55-0.01-8.09-0.12-10.3-0.33c-2.2-0.22-15.98-1.7-15.98-1.7l-10.08-0.15
				c11.9,10.38,27.39,16.77,44.42,17.01c16.79,0.24,32.26-5.52,44.38-15.29c0-0.04,0-0.07,0-0.07s-9.55-0.87-10.11-0.88
				c-0.55-0.01-7.54-0.11-8.46-0.12C273.89,313.37,266.17,313.07,265.62,313.06z"/>
		</g>
		<g>
			<path class="st13" d="M306.32,220.45c-20.2,29.55-64.64,85.83-109.34,84.53c12.47,14.88,31.08,24.47,52.02,24.77
				c38.2,0.55,69.61-29.96,70.16-68.16C319.38,246.26,314.59,232.03,306.32,220.45z"/>
			<path class="st13" d="M319.04,256.67c-21.37,27.6-62.38,67.32-115.22,55.39c12,10.78,27.79,17.44,45.18,17.69
				c38.2,0.55,69.61-29.96,70.16-68.16C319.18,259.93,319.13,258.3,319.04,256.67z"/>
		</g>
		
			<linearGradient id="SVGID_00000170242910456597520250000004339749131498580642_" gradientUnits="userSpaceOnUse" x1="104.2413" y1="140.949" x2="134.7112" y2="197.017" gradientTransform="matrix(0.8203 -0.1306 0.1524 0.8378 110.3393 107.4416)">
			<stop  offset="0" style="stop-color:#FFFFFF"/>
			<stop  offset="1" style="stop-color:#FFFFFF;stop-opacity:0"/>
		</linearGradient>
		<path style="opacity:0.3;fill:url(#SVGID_00000170242910456597520250000004339749131498580642_);" d="M276.17,207.51
			c9.8,16.69-1.37,41.45-24.95,55.31c-23.58,13.86-50.65,11.56-60.46-5.12c-9.8-16.69,1.36-41.45,24.95-55.31
			C239.29,188.53,266.36,190.82,276.17,207.51z"/>
		<path class="st20" d="M254.5,205.35c5.86,9.97-1.85,25.36-17.22,34.39c-15.36,9.03-32.57,8.27-38.42-1.7
			c-5.86-9.97,1.85-25.36,17.21-34.39C231.44,194.62,248.64,195.38,254.5,205.35z"/>
	</g>
	<g class="st0">
		<g class="st4">
			<path class="st16" d="M166.71,275.81c0,32.22-26.12,58.33-58.33,58.33c-32.22,0-58.33-26.12-58.33-58.33s26.12-58.33,58.33-58.33
				C140.59,217.48,166.71,243.59,166.71,275.81z"/>
			<g>
				<path class="st18" d="M132.57,254.2c-4.75-2.16-5.62-3.89-10.8-3.46c-8.21,0.43-15.12,6.05-23.77,5.18
					c-9.07-0.86-15.99-4.75-25.49-2.59c-6.05,1.73-6.48,1.73-12.96,0.87c-1.55-0.22-3.3-0.39-5.16-0.5
					c-2.79,6.82-4.35,14.28-4.35,22.1c0,32.22,26.12,58.33,58.33,58.33c32.22,0,58.33-26.12,58.33-58.33c0-7.1-1.27-13.9-3.59-20.19
					C153.83,260.14,142.74,259.29,132.57,254.2z"/>
			</g>
			<g>
				<path class="st32" d="M115.72,295.25c-6.05,3.46-12.1,2.59-19.01,3.89c-14.26,2.59-19.44-8.64-31.97-10.8
					c-4.75-0.86-8.21-0.86-12.96-2.59c-0.3-0.07-0.61-0.16-0.91-0.25c4.62,27.6,28.6,48.64,57.52,48.64
					c32.22,0,58.33-26.12,58.33-58.33c0-0.26-0.02-0.52-0.02-0.79c-9.5,2.3-20.26,8.24-27.63,11.59
					C130.84,290.5,123.93,290.93,115.72,295.25z"/>
			</g>
			<path class="st18" d="M68.73,233.03c1.17-1.08,2.38-2.11,3.63-3.09c1.47,0.03,3.17,0.07,3.17,0.07s5.08,0,5.51,0
				c0.43,0,13.94-0.22,13.94-0.22s2.59-0.32,3.03-0.32c0.32,0,3.73,0.12,5.52,0.18c0.64,0.02,1.07,0.04,1.07,0.04
				c0,0-1.84,0.11-3.46,0.43c-1.62,0.32-3.57,0.76-4.11,0.87c-0.54,0.11-1.4,0-2.38,0.11c-0.97,0.11-2.48,0.32-3.67,0.65
				c-1.19,0.32-2.92,0.22-3.89,0.43c-0.97,0.22-2.05,0.32-4.11,0.43c-2.05,0.11-6.05,0.43-7.24,0.43c-1.19,0-3.56,0-4.1,0
				C71.14,233.03,70.04,233.03,68.73,233.03z"/>
			<path class="st18" d="M142.4,321.18c-3.19-0.08-10.43-0.97-17.02-0.97c-6.6,0-14.26,0.65-14.26,0.65s6.6,0.97,9.68,0.97
				c3.09,0,5.11,0,6.6,0c1.49,0,3.62,0.57,5.75,0.65c2.13,0.08,7.13-0.08,7.13-0.08s1.48-0.09,3.48-0.21
				c0.51-0.39,1.03-0.79,1.53-1.2C144.21,321.12,143.21,321.2,142.4,321.18z"/>
			<path class="st18" d="M145.93,246.38c-0.55,0.05-2.53,0.29-4.17,0.44c-1.64,0.16-3.48,0.08-3.48,0.08c0,0,0.43,0.06,1.06,0.14
				c1.77,0.24,5.15,0.71,5.47,0.74c0.43,0.04,3.04-0.02,3.04-0.02s8.55,0.73,12.23,1.05c-0.48-0.91-0.97-1.81-1.5-2.69
				c-1.16-0.03-1.93-0.01-2.65,0.07c-0.99,0.12-2.7-0.17-3.91,0.04c-1.22,0.2-2.74,0.26-3.72,0.27
				C147.33,246.52,146.48,246.32,145.93,246.38z"/>
			<path class="st18" d="M90.2,239.22c0,0,5.02,0.97,7.37,0.97c2.35,0,3.89,0,5.02,0c1.13,0,2.75,0.57,4.38,0.65
				c1.62,0.08,5.43-0.08,5.43-0.08s7.37-0.57,9.88-0.89c2.51-0.32,4.05-0.16,6.16-0.32c2.11-0.16,2.43-0.08,4.62-0.08
				s2.92,0.32,4.86,0.32c1.95,0,2.35,0.08,4.46,0.08c2.11,0,2.67-0.24,3.32-0.24c0.65,0,1.46,0,2.11-0.16
				c0.65-0.16-1.22-0.57-1.22-0.57s-2.27,0-2.59,0c-0.32,0-0.65,0-1.3-0.08c-0.65-0.08-1.94-0.08-1.94-0.08s-8.67-0.65-8.91-0.65
				c-0.24,0-8.67,0-9.64,0c-0.97,0-5.75,1.54-8.18,1.46c-2.43-0.08-7.94-0.97-12.96-0.97C96.03,238.57,90.2,239.22,90.2,239.22z"/>
			<g>
				<path class="st16" d="M166.23,268.42c-1.86-0.16-4.64-0.39-4.76-0.39c-0.17,0.01-6.21,0.22-6.9,0.25
					c-0.7,0.02-4.05,1.94-5.8,1.91c-1.74-0.03-5.73-0.93-9.32-0.8c-3.6,0.13-7.75,1.03-7.75,1.03s3.64,1,5.32,0.94
					c1.68-0.06,2.79-0.1,3.6-0.13c0.81-0.03,2,0.59,3.16,0.64c1.16,0.05,3.88-0.23,3.88-0.23s5.25-0.85,7.04-1.29
					c1.79-0.44,2.89-0.29,4.4-0.54c1.5-0.24,1.74-0.16,3.3-0.21c1.57-0.06,2.1,0.3,3.5,0.25c0.18-0.01,0.35-0.01,0.5-0.01
					C166.35,269.36,166.29,268.89,166.23,268.42z"/>
				<path class="st16" d="M64.44,267.57c0,0,5.02,0.97,7.37,0.97c2.35,0,3.89,0,5.02,0c1.13,0,2.75,0.57,4.38,0.65
					c1.62,0.08,5.43-0.08,5.43-0.08s7.37-0.57,9.88-0.89c2.51-0.32,4.05-0.16,6.16-0.32c2.11-0.16,2.43-0.08,4.62-0.08
					s2.92,0.32,4.86,0.32c1.95,0,2.35,0.08,4.46,0.08c2.11,0,2.67-0.24,3.32-0.24s1.46,0,2.11-0.16c0.65-0.16-1.22-0.57-1.22-0.57
					s-2.27,0-2.59,0c-0.32,0-0.65,0-1.3-0.08c-0.65-0.08-1.94-0.08-1.94-0.08s-8.67-0.65-8.91-0.65c-0.24,0-8.67,0-9.64,0
					c-0.97,0-5.75,1.54-8.18,1.46c-2.43-0.08-7.94-0.97-12.96-0.97C70.27,266.92,64.44,267.57,64.44,267.57z"/>
				<path class="st16" d="M113.02,286.61c1.35,0,1.79,0.32,2.99,0.32c1.2,0,1.45,0.08,2.74,0.08c1.29,0,1.64-0.24,2.04-0.24
					c0.4,0,0.9,0,1.3-0.16c0.4-0.16-0.75-0.57-0.75-0.57s-1.4,0-1.6,0s-0.4,0-0.8-0.08c-0.4-0.08-1.2-0.08-1.2-0.08
					s-5.34-0.65-5.49-0.65c-0.15,0-5.34,0-5.93,0s-3.54,1.54-5.04,1.46c-1.5-0.08-4.89-0.97-7.98-0.97c-3.09,0-6.68,0.65-6.68,0.65
					s3.09,0.97,4.54,0.97c1.45,0,2.39,0,3.09,0c0.7,0,1.7,0.57,2.69,0.65c1,0.08,3.34-0.08,3.34-0.08s4.54-0.57,6.08-0.89
					c1.55-0.32,2.49-0.16,3.79-0.32C111.47,286.53,111.67,286.61,113.02,286.61z"/>
			</g>
			<path class="st18" d="M120.08,309.73c2.77-0.16,3.19-0.08,6.07-0.08c2.87,0,3.83,0.32,6.38,0.32c2.55,0,3.08,0.08,5.85,0.08
				c2.77,0,3.51-0.24,4.36-0.24c0.85,0,1.91,0,2.77-0.16c0.85-0.16-1.59-0.57-1.59-0.57s-2.98,0-3.41,0c-0.43,0-0.85,0-1.7-0.08
				c-0.85-0.08-2.55-0.08-2.55-0.08s-11.38-0.65-11.71-0.65c-0.32,0-11.38,0-12.66,0c-1.28,0-7.56,1.54-10.75,1.46
				c-3.19-0.08-10.43-0.97-17.03-0.97c-6.6,0-14.26,0.65-14.26,0.65s6.6,0.97,9.68,0.97c3.09,0,5.11,0,6.6,0
				c1.49,0,3.62,0.57,5.75,0.65c2.13,0.08,7.13-0.08,7.13-0.08s9.68-0.57,12.98-0.89C115.29,309.73,117.31,309.89,120.08,309.73z"/>
			<path class="st18" d="M161.09,294.69c-2.04,0.21-3.12,0.37-4.08,0.64c-0.96,0.27-2.69,0.25-3.86,0.63
				c-1.17,0.38-2.67,0.68-3.63,0.83c-0.97,0.16-1.83,0.1-2.37,0.23c-0.54,0.14-2.46,0.67-4.06,1.07c-1.6,0.41-3.43,0.61-3.43,0.61
				c0,0,0.43-0.01,1.07-0.02c1.79-0.03,5.2-0.08,5.52-0.1c0.43-0.02,3-0.48,3-0.48s10.84-0.73,13.38-0.89
				c0.37-0.93,0.71-1.87,1.03-2.82C162.71,294.51,161.78,294.62,161.09,294.69z"/>
			<path class="st18" d="M83.89,322.99c0.98-0.06,1.83,0.1,2.38,0.02c0.55-0.08,2.51-0.4,4.15-0.64c1.64-0.23,3.47-0.24,3.47-0.24
				c0,0-0.43-0.04-1.07-0.09c-1.78-0.16-5.18-0.47-5.5-0.48c-0.43-0.03-3.04,0.16-3.04,0.16s-8.95-0.35-12.5-0.49
				c1.11,0.89,2.25,1.75,3.42,2.56c0.39-0.03,0.74-0.07,1.08-0.13c0.98-0.16,2.7,0.04,3.91-0.21
				C81.39,323.18,82.91,323.05,83.89,322.99z"/>
		</g>
		<g class="st4">
			<path class="st13" d="M155.87,241.97c-17.74,25.6-54.19,70.75-91.38,72.26c10.69,12.2,26.38,19.92,43.88,19.92
				c32.22,0,58.33-26.12,58.33-58.33C166.71,263.19,162.68,251.51,155.87,241.97z"/>
			<path class="st13" d="M166.66,273.97c-18.48,23.22-51.93,54.36-94.71,47.39c9.98,7.99,22.64,12.78,36.42,12.78
				c32.22,0,58.33-26.12,58.33-58.33C166.71,275.19,166.68,274.58,166.66,273.97z"/>
		</g>
		
			<linearGradient id="SVGID_00000012461631056895834730000007835933063611848077_" gradientUnits="userSpaceOnUse" x1="-62.2449" y1="145.3465" x2="-35.3887" y2="194.7648" gradientTransform="matrix(0.8203 -0.1306 0.1524 0.8378 110.3393 107.4416)">
			<stop  offset="0" style="stop-color:#FFFFFF"/>
			<stop  offset="1" style="stop-color:#FFFFFF;stop-opacity:0"/>
		</linearGradient>
		<path style="display:inline;opacity:0.3;fill:url(#SVGID_00000012461631056895834730000007835933063611848077_);" d="
			M133.29,233.46c8.64,14.71-1.2,36.53-21.99,48.75c-20.79,12.22-44.64,10.19-53.29-4.52c-8.64-14.71,1.2-36.53,21.99-48.75
			C100.79,216.73,124.65,218.75,133.29,233.46z"/>
		<path class="st9" d="M114.19,231.55c5.16,8.79-1.63,22.36-15.18,30.31c-13.54,7.96-28.7,7.29-33.86-1.5
			c-5.16-8.79,1.63-22.36,15.17-30.31C93.87,222.09,109.03,222.77,114.19,231.55z"/>
	</g>
	<g class="st0">
		<path class="st34" d="M240.17,346.39c-53.42,6.63-95.66,22.67-94.33,35.82c1.33,13.14,45.71,18.43,99.13,11.79
			c53.43-6.63,95.66-22.67,94.33-35.82C337.97,345.04,293.59,339.76,240.17,346.39z M243.75,390.49
			c-37.65,4.67-78.37,2.65-79.68-10.31c-1.3-12.96,38-24.92,75.65-29.59c37.65-4.67,78.37-2.65,79.68,10.31
			C320.71,373.86,281.4,385.82,243.75,390.49z M240.81,352.79c-39.07,4.85-69.95,16.58-68.98,26.2c0.97,9.61,33.43,13.48,72.49,8.62
			c39.07-4.85,69.96-16.58,68.99-26.19C312.34,351.8,279.88,347.94,240.81,352.79z M243.43,385.04
			c-27.53,3.42-57.31,1.94-58.27-7.54c-0.95-9.47,27.79-18.22,55.32-21.64c27.53-3.42,57.31-1.94,58.27,7.54
			C299.71,372.88,270.96,381.62,243.43,385.04z"/>
		<g class="st4">
			<ellipse class="st35" cx="285.5" cy="383.66" rx="1.12" ry="0.66"/>
			<g>
				<path class="st6" d="M294.99,367.16c0,28.72-23.28,52-52,52c-28.72,0-52-23.28-52-52c0-28.72,23.28-52,52-52
					C271.71,315.16,294.99,338.44,294.99,367.16z"/>
				<g>
					<path class="st35" d="M235.05,405.12c-5.22-1.31-10.01-0.58-15.13,0.76c-3.83,1-8.15-1.16-12.3-0.61
						c9.28,8.61,21.7,13.89,35.36,13.89c10.04,0,19.41-2.85,27.36-7.78c-0.63-0.19-1.27-0.38-1.93-0.57
						c-5.1-1.41-10.86-1.46-16.09-2.29C246.53,407.6,240.75,406.55,235.05,405.12z"/>
					<path class="st35" d="M275.52,373.25c-2.47-0.85-4.79-2.02-7.31-2.77c-2.98-0.89-6.41-0.65-9.48-0.8
						c-6.52-0.3-12.29-2.34-18.61-3.47c-4.81-0.87-9.67,0.18-14.32,1.4c-3.09,0.81-6.08,1.6-9.3,1.78c-3.2,0.18-6.25-0.22-9.46,0.33
						c-5.28,0.92-10.5,1.83-15.8,2.56c0.16,1.66,0.41,3.3,0.72,4.92c0.71-0.08,1.42-0.15,2.12-0.23c5.16-0.58,10.17-1.88,15.3-2.56
						c5.51-0.74,10.6-0.11,16.09-1.54c6.66-1.73,12.1-2.44,18.78-0.51c5.4,1.56,10.68,2.15,16.29,2.41c3.25,0.15,6.23,0.39,9.3,1.52
						c2.46,0.91,4.76,2.02,7.31,2.68c4.76,1.24,9.96-0.72,14.48-2.03c0.85-0.25,1.69-0.44,2.52-0.59c0.31-1.73,0.53-3.5,0.66-5.29
						C288.3,372.39,282.18,375.54,275.52,373.25z"/>
					<path class="st36" d="M278.54,388.09c-5.84-1.41-11.87-0.98-17.77-2.45c-4.99-1.24-11.65-4.19-16.85-2.83
						c-1.79,0.47-3.34,1.28-4.93,2.21c-1.9,1.12-5.44-0.88-7.86-0.29c-2.31,0.57-4.36,1.69-6.61,2.45
						c-2.31,0.77-6.07-1.18-8.37-1.63c-5.84-1.15-11.92,1.16-17.41,2.91c-0.93,0.3-1.86,0.6-2.79,0.9c1.45,3.07,3.19,5.97,5.19,8.67
						c4.51-1.67,9.47-3.41,13.75-2.57c4.83,0.95,8.72,2.55,13.65,0.9c2.64-0.88,4-2.14,6.85-1.14c2.38,0.83,5.53,0.03,7.69-1.08
						c2.13-1.09,2.73-1.72,5.2-1.29c2.77,0.48,5.5,1.28,8.21,2c6.03,1.6,11.81,1.74,17.91,2.59c3.07,0.43,6.01,1.37,8.88,2.56
						c2.07-2.53,3.9-5.26,5.47-8.15C285.48,390.31,282.12,388.96,278.54,388.09z"/>
					<path class="st37" d="M256.15,324.96c4.99-0.32,10.05-1.16,15.09-1.45c-8.14-5.28-17.83-8.36-28.26-8.36
						c-9.45,0-18.31,2.54-25.95,6.94c4.52,0.69,9.05,0.96,12.78,1.39C236.59,324.28,247.63,325.51,256.15,324.96z"/>
					<path class="st35" d="M198.22,340.7c4.69-1.12,9.56-1.63,14.25-2.02c4.65-0.39,8.77,0.38,13.35,0.98
						c5.35,0.7,10.55,0.51,15.89-0.17c2.21-0.28,4.41-0.63,6.61-0.97c3.21-0.5,5.19,0.39,8.17,1.46c4.46,1.61,9.44,1.82,14.13,1.92
						c5.06,0.1,9.92,0.82,14.95,1.26c1.18,0.1,2.34,0.04,3.48-0.11c-1.92-3.65-4.26-7.05-6.95-10.13
						c-3.81-0.37-7.59-0.99-11.47-1.02c-5.2-0.04-9.79-0.87-14.64-2.73c-5.16-1.98-10.74-0.12-16,0.55
						c-10.29,1.31-20.14-1.74-30.44-0.77c-0.67,0.06-1.35,0.13-2.03,0.2C203.9,332.52,200.77,336.41,198.22,340.7z"/>
					<path class="st36" d="M268.36,351.3c-6.03-1.6-11.66-3.31-17.95-3.4c-6.33-0.09-12.85,0.04-19.17,0.42
						c-3.05,0.19-5.95,1.01-8.87,1.86c-3.39,0.98-6.5,0.99-10.02,0.9c-6.22-0.16-12.67,0.14-19.09,0.83
						c-0.26,0.86-0.5,1.72-0.72,2.59c6.66-0.75,13.37-1.09,19.81-0.92c5.28,0.14,9-0.48,14.04-1.97c6.4-1.88,13.91-0.9,20.52-1.14
						c11.88-0.44,22.5,4.96,34.31,4.99c4.23,0.01,8.38-0.11,12.48,0.31c-0.19-0.85-0.4-1.7-0.63-2.53c-1.59-0.19-3.18-0.3-4.8-0.33
						C281.45,352.79,275.06,353.07,268.36,351.3z"/>
				</g>
				<ellipse class="st35" cx="282" cy="361.33" rx="3" ry="1.77"/>
				<ellipse class="st35" cx="207.95" cy="359.16" rx="3" ry="1.77"/>
				<ellipse class="st35" cx="271.2" cy="383.41" rx="3" ry="1.77"/>
				<ellipse class="st35" cx="235.45" cy="320.16" rx="3" ry="1.77"/>
				<ellipse class="st35" cx="249.02" cy="404.04" rx="1.81" ry="1.07"/>
				<ellipse class="st35" cx="248.02" cy="355.29" rx="1.81" ry="1.07"/>
				<ellipse class="st35" cx="220.77" cy="379.91" rx="1.81" ry="1.07"/>
				<ellipse class="st35" cx="269.02" cy="329.04" rx="1.12" ry="0.66"/>
				<ellipse class="st35" cx="222.16" cy="325.83" rx="1.12" ry="0.66"/>
				<ellipse class="st35" cx="229.49" cy="358.66" rx="1.12" ry="0.66"/>
				<path class="st35" d="M263.79,364c0,0.37-0.5,0.66-1.12,0.66c-0.62,0-1.12-0.3-1.12-0.66c0-0.37,0.5-0.66,1.12-0.66
					C263.29,363.33,263.79,363.63,263.79,364z"/>
				<ellipse class="st35" cx="274.83" cy="345.33" rx="1.12" ry="0.66"/>
				<path class="st35" d="M244.62,377.83c0,0.37-0.5,0.66-1.12,0.66c-0.62,0-1.12-0.3-1.12-0.66s0.5-0.66,1.12-0.66
					C244.12,377.17,244.62,377.46,244.62,377.83z"/>
				<ellipse class="st35" cx="234.83" cy="401.16" rx="1.12" ry="0.66"/>
				<path class="st35" d="M266.29,403.5c0,0.37-0.5,0.66-1.12,0.66c-0.62,0-1.12-0.3-1.12-0.66c0-0.37,0.5-0.66,1.12-0.66
					C265.79,402.83,266.29,403.13,266.29,403.5z"/>
				<ellipse class="st35" cx="205.16" cy="381.16" rx="1.12" ry="0.66"/>
				<path class="st35" d="M209.12,344.5c0,0.37-0.5,0.66-1.12,0.66c-0.62,0-1.12-0.3-1.12-0.66c0-0.37,0.5-0.66,1.12-0.66
					C208.62,343.83,209.12,344.13,209.12,344.5z"/>
				<path class="st35" d="M250.95,343.33c0,0.37-0.5,0.66-1.12,0.66c-0.62,0-1.12-0.3-1.12-0.66s0.5-0.66,1.12-0.66
					C250.45,342.66,250.95,342.96,250.95,343.33z"/>
			</g>
			<g>
				<path class="st13" d="M284.6,335.97c-16.89,23.77-48.23,61.13-80.74,65.42c9.53,10.89,23.52,17.77,39.13,17.77
					c28.72,0,52-23.28,52-52C294.99,355.46,291.12,344.66,284.6,335.97z"/>
				<path class="st13" d="M294.96,366.01c-17.13,20.72-45.99,46.27-82.48,43.25c8.57,6.22,19.11,9.9,30.51,9.9
					c28.72,0,52-23.28,52-52C294.99,366.77,294.96,366.39,294.96,366.01z"/>
			</g>
		</g>
		<path class="st34" d="M339.3,358.19c-0.84-8.35-19.03-13.52-45.87-14.49c0.57,1.89,1.31,3.78,1.9,5.68
			c13.89,1.67,23.45,5.36,24.07,11.53c1.31,12.96-38,24.92-75.65,29.59c-37.65,4.67-78.37,2.65-79.68-10.31
			c-0.65-6.48,8.85-12.71,23.23-17.91c0.03-1.85,0.26-3.66,0.5-5.49c-26.04,7.54-42.81,17.06-41.96,25.42
			c1.33,13.14,45.71,18.43,99.13,11.79C298.39,387.37,340.62,371.33,339.3,358.19z"/>
		<path class="st34" d="M296.08,352.35c0.02,0.12,0.05,0.24,0.07,0.36c0.38,2.39,0.51,4.62,0.25,6.9c1.38,1.08,2.2,2.34,2.34,3.79
			c0.96,9.48-27.79,18.22-55.32,21.64c-27.53,3.42-57.31,1.94-58.27-7.54c-0.22-2.22,1.19-4.39,3.83-6.47
			c-0.7-1.74-1.22-3.54-1.49-5.4c-10.17,4.34-16.11,9.05-15.67,13.35c0.97,9.61,33.43,13.48,72.49,8.62
			c39.07-4.85,69.96-16.58,68.99-26.19C312.88,357.21,306.45,354.11,296.08,352.35z"/>
		<g class="st4">
			
				<linearGradient id="SVGID_00000063622395293425831750000007930200046446556561_" gradientUnits="userSpaceOnUse" x1="214.1732" y1="324.7118" x2="245.7848" y2="363.7488">
				<stop  offset="0" style="stop-color:#FFFFFF"/>
				<stop  offset="1" style="stop-color:#FFFFFF;stop-opacity:0"/>
			</linearGradient>
			<path style="opacity:0.5;fill:url(#SVGID_00000063622395293425831750000007930200046446556561_);" d="M260.24,326.45
				c6.95,11.83-0.96,29.38-17.68,39.2c-16.71,9.82-35.9,8.19-42.85-3.63c-6.95-11.83,0.97-29.38,17.68-39.2
				C234.11,313,253.29,314.62,260.24,326.45z"/>
			<path class="st39" d="M244.89,324.91c4.15,7.06-1.31,17.98-12.2,24.38c-10.89,6.4-23.08,5.86-27.23-1.21
				c-4.15-7.06,1.31-17.98,12.2-24.38C228.54,317.31,240.73,317.85,244.89,324.91z"/>
		</g>
	</g>
	<g class="st0">
		<g class="st4">
			<circle class="st32" cx="396.08" cy="388.68" r="38.25"/>
			<path class="st18" d="M396.08,350.43c-16.52,0-30.59,10.47-35.94,25.14c4.87-1.38,8.96-0.69,12.86,1.7
				c4.5,2.75,10.5-0.67,14.83-8.83c4.33-8.17,7.75,1.42,12.75,7.25s7.58-3.42,5.58-11.83c-0.29-1.21-1.1-4.9,0.82-5.25
				c2.15-0.39,3.98,1.57,5.43,2.84c1.75,1.52,3.49,3.16,5.58,4.2c2.34,1.16,4.93,1.91,7.46,2.54c0.61,0.15,1.22,0.3,1.83,0.44
				c0.22,0.05,1.46,0.15,1.56,0.32C422.15,357.85,409.98,350.43,396.08,350.43z"/>
			<path class="st13" d="M405.68,425.71c3.88-1,7.53-2.61,10.83-4.7c0.88-0.59,1.73-1.22,2.56-1.88c2.94-2.35,5.64-5.05,7.97-8.01
				c4.58-6.3,7.28-14.05,7.28-22.44c0-1.55-0.1-3.07-0.28-4.57c-0.59,1.47-1.46,3.56-1.72,4.19c-1.26,3.09-1.7,7.13-4.72,9.13
				c-0.91,0.6-2.48,0.46-3.38-0.15c-2.48-1.68-3.67-4.73-4.88-7.34c-0.67-1.43-1.25-2.88-1.76-4.38c-0.25-0.72-0.54-1.44-0.74-2.18
				c-0.01-0.03-0.01-0.06-0.02-0.09c0.92,4.42,2.68,12.64-0.89,16.38c-7.42,7.76-18.57-2.51-21.21-9.77c-1.09-3-1.92-6.67-2.02-9.86
				c0.34,10.77-9.56,19.17-18.9,22.59c-2.71,1-7.17,1.77-9.97,0.7c-1.16-0.44-3.87-1.97-4.27-3.24c0.02,0.05,0.04,0.11,0.05,0.16
				c0.15,0.47,0.31,0.93,0.47,1.39c0.08,0.22,0.17,0.45,0.25,0.67c0.12,0.31,0.24,0.62,0.37,0.93c0.1,0.23,0.2,0.46,0.3,0.7
				c0.13,0.3,0.26,0.59,0.4,0.88c0.1,0.22,0.21,0.45,0.32,0.67c0.16,0.32,0.32,0.64,0.49,0.95c0.1,0.18,0.19,0.37,0.29,0.55
				c0.26,0.47,0.53,0.94,0.8,1.4c0.11,0.18,0.22,0.35,0.33,0.52c0.19,0.3,0.38,0.6,0.58,0.9c0.13,0.2,0.27,0.39,0.4,0.59
				c0.19,0.27,0.38,0.54,0.58,0.81c0.14,0.19,0.28,0.38,0.42,0.57c0.21,0.28,0.43,0.56,0.66,0.84c0.13,0.16,0.26,0.32,0.39,0.48
				c0.35,0.42,0.7,0.83,1.07,1.23c0.1,0.11,0.2,0.21,0.3,0.32c0.28,0.31,0.57,0.61,0.86,0.9c0.15,0.15,0.31,0.3,0.46,0.45
				c0.25,0.25,0.5,0.49,0.76,0.73c0.16,0.15,0.33,0.3,0.5,0.45c0.27,0.24,0.54,0.48,0.82,0.71c0.16,0.13,0.31,0.26,0.47,0.39
				c0.37,0.3,0.75,0.6,1.14,0.89c0.06,0.05,0.12,0.1,0.19,0.15c0.44,0.33,0.9,0.65,1.35,0.96c0.16,0.11,0.32,0.21,0.47,0.31
				c0.32,0.21,0.64,0.42,0.96,0.61c0.18,0.11,0.36,0.22,0.54,0.33c0.32,0.19,0.64,0.38,0.97,0.56c0.18,0.1,0.35,0.2,0.53,0.29
				c0.39,0.21,0.78,0.41,1.17,0.6c0.12,0.06,0.23,0.12,0.35,0.17c0.51,0.24,1.02,0.48,1.54,0.7c0.14,0.06,0.29,0.12,0.44,0.18
				c0.39,0.16,0.77,0.31,1.16,0.46c0.19,0.07,0.38,0.14,0.57,0.21c0.36,0.13,0.72,0.25,1.09,0.37c0.19,0.06,0.39,0.12,0.58,0.18
				c0.4,0.12,0.8,0.23,1.21,0.34c0.16,0.04,0.31,0.09,0.47,0.13c0.56,0.14,1.13,0.27,1.7,0.39c0.11,0.02,0.21,0.04,0.32,0.06
				c0.47,0.09,0.94,0.18,1.41,0.25c0.2,0.03,0.39,0.06,0.59,0.08c0.4,0.06,0.79,0.11,1.19,0.15c0.21,0.02,0.42,0.05,0.63,0.07
				c0.41,0.04,0.82,0.07,1.24,0.09c0.19,0.01,0.38,0.03,0.57,0.04c0.6,0.03,1.2,0.05,1.81,0.05c2.1,0,4.29-0.34,6.37-0.63
				C403.53,426.14,404.61,425.95,405.68,425.71z"/>
		</g>
		
			<linearGradient id="SVGID_00000172415466040059457970000016422380566941300668_" gradientUnits="userSpaceOnUse" x1="262.1158" y1="344.7008" x2="277.8802" y2="373.709" gradientTransform="matrix(0.8203 -0.1306 0.1524 0.8378 110.3393 107.4416)">
			<stop  offset="0" style="stop-color:#FFFFFF"/>
			<stop  offset="1" style="stop-color:#FFFFFF;stop-opacity:0"/>
		</linearGradient>
		<path style="display:inline;opacity:0.3;fill:url(#SVGID_00000172415466040059457970000016422380566941300668_);" d="
			M408.33,359.72c5.07,8.63-0.7,21.44-12.91,28.61c-12.2,7.17-26.21,5.98-31.28-2.65c-5.07-8.63,0.71-21.45,12.91-28.61
			C389.25,349.9,403.25,351.09,408.33,359.72z"/>
		<path class="st9" d="M397.12,358.6c3.03,5.16-0.96,13.12-8.91,17.79c-7.95,4.67-16.85,4.28-19.88-0.88
			c-3.03-5.16,0.96-13.12,8.91-17.79C385.19,353.05,394.09,353.44,397.12,358.6z"/>
	</g>
	<g class="st0">
		<g class="st4">
			<g>
				<circle class="st18" cx="97.85" cy="389.15" r="32.25"/>
				<path class="st16" d="M70.39,372.23c13.1-0.17,32.83-1.4,49.63-6.47c3.45,3.27,6.17,7.29,7.91,11.81
					c-11.24,3.32-33.86,8.55-62.07,7.45C66.47,380.37,68.04,376.03,70.39,372.23z"/>
				<path class="st41" d="M65.61,389.61c0.02,1.43,0.13,2.84,0.33,4.22c30.02,2.36,55.01-3.61,64.12-6.21
					c-0.09-2.01-0.38-3.97-0.82-5.87C107.58,389.1,77.07,389.68,65.61,389.61z"/>
				<g>
					<path class="st16" d="M126.8,403.35c1.65-3.36,2.74-7.04,3.13-10.94c-23.74,5.98-49.15,6.48-62.93,6.18
						c1.34,4.37,3.59,8.33,6.51,11.69c-0.22-0.25-0.44-0.49-0.65-0.75C89.18,408.66,108.41,406.88,126.8,403.35z"/>
				</g>
			</g>
			<path class="st41" d="M126.8,403.36C126.8,403.36,126.8,403.35,126.8,403.36c-18.39,3.52-37.62,5.3-53.93,6.18
				c0.21,0.26,0.43,0.5,0.65,0.75c0.26,0.3,0.53,0.6,0.8,0.89c0.24,0.25,0.48,0.51,0.72,0.75c0.33,0.33,0.67,0.65,1.02,0.97
				c0.33,0.3,0.66,0.59,0.99,0.88c0.35,0.3,0.71,0.59,1.08,0.88c0.25,0.2,0.51,0.39,0.77,0.58c0.39,0.28,0.78,0.55,1.18,0.82
				c0.21,0.14,0.42,0.29,0.63,0.42c0.58,0.36,1.17,0.7,1.77,1.03c0.24,0.13,0.48,0.25,0.73,0.38c0.46,0.24,0.93,0.46,1.41,0.68
				c0.21,0.1,0.42,0.2,0.64,0.29c0.66,0.28,1.33,0.54,2.02,0.78c0.2,0.07,0.4,0.13,0.6,0.2c0.55,0.18,1.11,0.35,1.68,0.5
				c0.21,0.06,0.42,0.11,0.63,0.17c0.73,0.18,1.48,0.34,2.23,0.46c0.13,0.02,0.26,0.04,0.39,0.06c0.66,0.1,1.32,0.18,1.98,0.25
				c0.21,0.02,0.43,0.04,0.64,0.06c0.79,0.06,1.59,0.1,2.4,0.1c0.71,0,1.41-0.03,2.1-0.08c0.17-0.01,0.34-0.02,0.5-0.04
				c0.69-0.06,1.37-0.13,2.05-0.22c0.04,0,0.07-0.01,0.11-0.02c0.65-0.1,1.29-0.22,1.93-0.35c0.15-0.03,0.31-0.06,0.46-0.1
				c0.66-0.15,1.32-0.32,1.96-0.51c0.05-0.01,0.1-0.03,0.15-0.05c0.61-0.18,1.22-0.39,1.81-0.61c0.13-0.05,0.25-0.09,0.38-0.14
				c0.64-0.24,1.26-0.5,1.88-0.78c0.04-0.02,0.08-0.04,0.13-0.06c0.59-0.27,1.17-0.56,1.74-0.87c0.09-0.05,0.18-0.09,0.27-0.14
				c0.61-0.33,1.2-0.68,1.78-1.05c0.03-0.02,0.06-0.04,0.09-0.06c0.57-0.36,1.12-0.75,1.67-1.14c0.05-0.04,0.1-0.07,0.15-0.11
				c0.57-0.42,1.13-0.86,1.67-1.32c0.01-0.01,0.03-0.02,0.04-0.03c0.54-0.46,1.07-0.94,1.58-1.44c0.01-0.01,0.03-0.02,0.04-0.04
				c0.52-0.51,1.03-1.04,1.52-1.58c0,0,0,0,0,0C123.82,408.49,125.49,406.03,126.8,403.36z"/>
			<path class="st42" d="M108.34,364.63c0.13,0.96-3.64,2.28-8.42,2.95c-4.79,0.67-8.77,0.44-8.91-0.52
				c-0.13-0.96,3.72-1.66,8.51-2.33C104.31,364.06,108.21,363.67,108.34,364.63z"/>
			<path class="st42" d="M93.6,362.58c0.09,0.62-2.37,1.49-5.5,1.92c-3.12,0.44-5.73,0.29-5.81-0.34c-0.09-0.62,2.43-1.08,5.55-1.52
				C90.96,362.2,93.51,361.95,93.6,362.58z"/>
			<path class="st42" d="M87.93,380.57c0.05,0.97-3.82,1.95-8.65,2.19c-4.83,0.24-8.78-0.34-8.83-1.31
				c-0.05-0.96,3.86-1.32,8.68-1.56C83.96,379.65,87.88,379.61,87.93,380.57z"/>
			<path class="st42" d="M117.41,410.52c0.16,0.95-3.57,2.38-8.34,3.18c-4.77,0.8-8.76,0.68-8.92-0.27
				c-0.16-0.95,3.68-1.76,8.44-2.56C113.37,410.06,117.25,409.56,117.41,410.52z"/>
			<path class="st42" d="M104.11,374.14c0.08,0.62-2.27,1.46-5.27,1.86c-3,0.4-5.49,0.23-5.57-0.39c-0.08-0.62,2.33-1.05,5.32-1.46
				C101.58,373.74,104.02,373.52,104.11,374.14z"/>
			<path class="st42" d="M94.28,402.29c0.07,0.62-2.3,1.41-5.31,1.75c-3,0.34-5.49,0.12-5.57-0.51c-0.07-0.62,2.35-1,5.35-1.35
				C91.77,401.84,94.21,401.67,94.28,402.29z"/>
			<path class="st42" d="M123.64,374.39c0.17,0.74-2.56,1.98-6.09,2.78c-3.53,0.8-6.53,0.85-6.7,0.11c-0.17-0.73,2.67-1.5,6.2-2.3
				C120.59,374.18,123.48,373.65,123.64,374.39z"/>
			<path class="st42" d="M119.6,387.61c0.14,0.76-2.8,1.95-6.59,2.67c-3.78,0.72-6.96,0.69-7.11-0.07c-0.14-0.76,2.9-1.46,6.68-2.18
				C116.37,387.31,119.45,386.85,119.6,387.61z"/>
		</g>
		<g class="st4">
			<path class="st13" d="M123.79,370c-10.22,14.51-29.74,38.13-49.98,40.65c5.91,6.6,14.48,10.76,24.04,10.76
				c17.81,0,32.25-14.44,32.25-32.25C130.1,381.98,127.75,375.36,123.79,370z"/>
			<path class="st13" d="M130.08,388.47c-10.41,12.77-28.27,28.9-50.94,26.95c5.28,3.77,11.73,5.99,18.71,5.99
				c17.81,0,32.25-14.44,32.25-32.25C130.1,388.92,130.08,388.7,130.08,388.47z"/>
		</g>
		
			<linearGradient id="SVGID_00000179613495478880810920000013694123048332710590_" gradientUnits="userSpaceOnUse" x1="-88.4735" y1="296.0244" x2="-75.0276" y2="320.7663" gradientTransform="matrix(0.8203 -0.1306 0.1524 0.8378 110.3393 107.4416)">
			<stop  offset="0" style="stop-color:#FFFFFF"/>
			<stop  offset="1" style="stop-color:#FFFFFF;stop-opacity:0"/>
		</linearGradient>
		<path style="display:inline;opacity:0.3;fill:url(#SVGID_00000179613495478880810920000013694123048332710590_);" d="
			M108.84,365.06c4.33,7.36-0.6,18.29-11.01,24.41c-10.41,6.12-22.35,5.1-26.68-2.26c-4.33-7.36,0.6-18.29,11.01-24.41
			C92.57,356.69,104.52,357.7,108.84,365.06z"/>
		<path class="st9" d="M99.28,364.11c2.58,4.4-0.82,11.19-7.6,15.18c-6.78,3.98-14.37,3.65-16.95-0.75
			c-2.59-4.4,0.81-11.19,7.6-15.18C89.11,359.37,96.7,359.71,99.28,364.11z"/>
	</g>
</g>
<g id="DESIGNED_BY_FREEPIK" class="st0">
	<g class="st4">
		<g id="XMLID_319_">
			<g id="XMLID_338_">
				<path id="XMLID_346_" class="st44" d="M260.1,476.02c-0.43,0.44-0.8,0.93-1.11,1.45l-0.46-0.24c-0.07-0.3-0.35-0.5-0.66-0.47
					c-0.33,0.04-0.57,0.34-0.53,0.67c0.04,0.33,0.34,0.57,0.67,0.53c0.07-0.01,0.13-0.03,0.18-0.05l0.45,0.23
					c-0.25,0.55-0.43,1.14-0.54,1.74l0.75,0.13c0.23-1.31,0.85-2.51,1.79-3.47L260.1,476.02z"/>
				<path id="XMLID_345_" class="st44" d="M265.59,473.72c-0.17,0-0.34,0.01-0.51,0.02l-0.07-0.63c0.19-0.15,0.3-0.39,0.27-0.64
					c-0.05-0.39-0.4-0.67-0.79-0.63c-0.39,0.05-0.67,0.4-0.63,0.8c0.03,0.25,0.19,0.46,0.4,0.56l0.07,0.62
					c-0.71,0.12-1.4,0.33-2.06,0.65l0.33,0.68c0.93-0.45,1.94-0.67,3-0.67c0.5,0,0.99,0.05,1.48,0.16l0.16-0.74
					C266.69,473.77,266.14,473.72,265.59,473.72z"/>
				<path id="XMLID_344_" class="st44" d="M272.19,476.26c0.33-0.04,0.57-0.34,0.53-0.67c-0.04-0.33-0.34-0.57-0.67-0.53
					c-0.31,0.04-0.54,0.3-0.53,0.61l-0.42,0.36c-0.42-0.43-0.89-0.81-1.41-1.14l-0.4,0.64c1.13,0.71,2.02,1.73,2.56,2.92l0.69-0.31
					c-0.25-0.55-0.57-1.07-0.94-1.54l0.4-0.35C272.06,476.27,272.13,476.27,272.19,476.26z"/>
				<path id="XMLID_343_" class="st44" d="M265.04,483.92c-0.39,0.02-0.78,0.04-1.16,0.04c-0.88,0-1.73-0.06-2.48-0.18
					c-0.39-0.06-0.85-0.15-1.27-0.29c1.05,1.86,3.07,3.12,5.39,3.12c2.86,0,5.26-1.92,5.95-4.5c-0.68,0.45-1.5,0.83-2.46,1.12
					C267.84,483.6,266.46,483.84,265.04,483.92z"/>
				<path id="XMLID_339_" class="st44" d="M265.59,475.23c-3.35,0-6.08,2.67-6.08,5.94c0,0.42,0.05,0.85,0.14,1.26
					c0.67,0.48,2.71,0.89,5.35,0.73c2.88-0.17,5.3-0.96,6.67-2.16c0-0.19-0.02-0.39-0.04-0.58
					C271.24,477.47,268.65,475.23,265.59,475.23z M263.43,481.75c-1.02,0-1.85-0.83-1.85-1.85c0-1.02,0.83-1.85,1.85-1.85
					c1.02,0,1.85,0.83,1.85,1.85C265.28,480.92,264.45,481.75,263.43,481.75z M268.17,480.84c-0.75,0-1.36-0.61-1.36-1.36
					s0.61-1.36,1.36-1.36s1.36,0.61,1.36,1.36S268.92,480.84,268.17,480.84z"/>
			</g>
			<path id="XMLID_336_" class="st44" d="M281.6,477.1c-0.29-0.12-0.81-0.31-1.38-0.24c-0.55,0.07-0.84,0.34-0.84,1.01v0.87h2.23
				v1.72h-2.23v5.46h-1.93v-5.46h-1.34v-1.72h1.34v-0.89c0-1.68,0.9-2.78,2.57-2.78c0.64,0,1.16,0.12,1.59,0.31V477.1z"/>
			<path id="XMLID_334_" class="st44" d="M286.3,480.43c-0.18-0.03-0.36-0.05-0.53-0.05c-0.9,0-1.51,0.55-1.51,1.61v3.91h-1.93
				v-7.17h1.87v0.78c0.45-0.67,1.14-0.98,2.02-0.98c0.41,0,0.85,0.13,1.09,0.34L286.3,480.43z"/>
			<path id="XMLID_331_" class="st44" d="M293.97,482.31c0,0.22-0.02,0.49-0.04,0.65h-5.08c0.21,1.04,0.93,1.49,1.84,1.49
				c0.62,0,1.29-0.25,1.81-0.69l1.13,1.24c-0.81,0.75-1.85,1.09-3.06,1.09c-2.2,0-3.72-1.5-3.72-3.75c0-2.26,1.48-3.8,3.63-3.8
				C292.54,478.54,293.96,480.07,293.97,482.31z M288.85,481.64h3.17c-0.18-0.92-0.73-1.44-1.56-1.44
				C289.55,480.21,289.02,480.75,288.85,481.64z"/>
			<path id="XMLID_328_" class="st44" d="M301.62,482.31c0,0.22-0.02,0.49-0.04,0.65h-5.08c0.21,1.04,0.93,1.49,1.84,1.49
				c0.62,0,1.3-0.25,1.81-0.69l1.13,1.24c-0.81,0.75-1.85,1.09-3.06,1.09c-2.2,0-3.72-1.5-3.72-3.75c0-2.26,1.48-3.8,3.63-3.8
				C300.2,478.54,301.61,480.07,301.62,482.31z M296.5,481.64h3.17c-0.18-0.92-0.73-1.44-1.56-1.44
				C297.21,480.21,296.67,480.75,296.5,481.64z"/>
			<path id="XMLID_325_" class="st44" d="M309.96,482.32c0,2.15-1.5,3.78-3.47,3.78c-0.96,0-1.64-0.38-2.11-0.93v3.71h-1.92v-10.13
				h1.89v0.79c0.47-0.58,1.15-0.98,2.14-0.98C308.47,478.54,309.96,480.16,309.96,482.32z M304.29,482.32
				c0,1.13,0.75,1.98,1.84,1.98c1.14,0,1.85-0.88,1.85-1.98c0-1.09-0.71-1.98-1.85-1.98C305.03,480.34,304.29,481.18,304.29,482.32z
				"/>
			<path id="XMLID_322_" class="st44" d="M313.07,476.39c0,0.7-0.54,1.23-1.24,1.23c-0.7,0-1.23-0.53-1.23-1.23
				c0-0.7,0.53-1.24,1.23-1.24C312.53,475.14,313.07,475.69,313.07,476.39z M312.81,485.91h-1.93v-7.17h1.93V485.91z"/>
			<path id="XMLID_320_" class="st44" d="M316.03,481.29l2.7-2.55h2.37l-3.48,3.38l3.5,3.8h-2.38l-2.72-2.9v2.9h-1.93v-10.66h1.93
				V481.29z"/>
		</g>
		<g>
			<path class="st44" d="M184.41,485.84v-1.05c-0.53,0.72-1.39,1.23-2.39,1.23c-1.85,0-3.15-1.41-3.15-3.71
				c0-2.26,1.29-3.72,3.15-3.72c0.95,0,1.82,0.47,2.39,1.25v-3.76h1.1v9.77H184.41z M184.41,483.92v-3.21
				c-0.39-0.62-1.24-1.14-2.12-1.14c-1.42,0-2.27,1.17-2.27,2.74c0,1.57,0.85,2.72,2.27,2.72
				C183.17,485.04,184.02,484.54,184.41,483.92z"/>
			<path class="st44" d="M186.93,482.3c0-2.05,1.46-3.71,3.49-3.71c2.14,0,3.4,1.67,3.4,3.79v0.28h-5.73
				c0.09,1.33,1.03,2.45,2.55,2.45c0.81,0,1.63-0.32,2.18-0.89l0.53,0.72c-0.7,0.7-1.65,1.08-2.81,1.08
				C188.44,486.02,186.93,484.51,186.93,482.3z M190.4,479.5c-1.51,0-2.26,1.27-2.31,2.36h4.64
				C192.72,480.8,192.01,479.5,190.4,479.5z"/>
			<path class="st44" d="M194.61,484.9l0.57-0.79c0.47,0.54,1.36,1.01,2.33,1.01c1.08,0,1.67-0.51,1.67-1.22
				c0-1.71-4.38-0.66-4.38-3.28c0-1.1,0.95-2.04,2.64-2.04c1.2,0,2.05,0.45,2.62,1.03l-0.51,0.76c-0.42-0.51-1.2-0.89-2.11-0.89
				c-0.97,0-1.57,0.48-1.57,1.11c0,1.55,4.38,0.53,4.38,3.28c0,1.19-0.95,2.14-2.78,2.14C196.31,486.02,195.32,485.67,194.61,484.9z
				"/>
			<path class="st44" d="M201.48,477.02c0-0.41,0.34-0.75,0.73-0.75c0.41,0,0.75,0.34,0.75,0.75c0,0.41-0.34,0.73-0.75,0.73
				C201.81,477.76,201.48,477.43,201.48,477.02z M201.67,485.84v-7.08h1.1v7.08H201.67z"/>
			<path class="st44" d="M204.58,487.66l0.56-0.82c0.59,0.7,1.29,0.97,2.3,0.97c1.17,0,2.27-0.57,2.27-2.12v-1.01
				c-0.51,0.72-1.38,1.26-2.37,1.26c-1.85,0-3.15-1.38-3.15-3.66c0-2.27,1.29-3.68,3.15-3.68c0.95,0,1.8,0.47,2.37,1.25v-1.07h1.1
				v6.87c0,2.34-1.64,3.08-3.37,3.08C206.24,488.71,205.42,488.48,204.58,487.66z M209.71,483.81v-3.09
				c-0.38-0.62-1.23-1.14-2.11-1.14c-1.42,0-2.27,1.13-2.27,2.7c0,1.55,0.85,2.7,2.27,2.7
				C208.48,484.96,209.33,484.42,209.71,483.81z"/>
			<path class="st44" d="M217.41,485.84v-4.63c0-1.25-0.63-1.64-1.58-1.64c-0.86,0-1.68,0.53-2.09,1.1v5.17h-1.1v-7.08h1.1v1.03
				c0.5-0.59,1.46-1.2,2.52-1.2c1.48,0,2.26,0.75,2.26,2.29v4.97H217.41z"/>
			<path class="st44" d="M219.93,482.3c0-2.05,1.46-3.71,3.49-3.71c2.14,0,3.4,1.67,3.4,3.79v0.28h-5.73
				c0.09,1.33,1.02,2.45,2.55,2.45c0.81,0,1.63-0.32,2.18-0.89l0.53,0.72c-0.7,0.7-1.66,1.08-2.81,1.08
				C221.44,486.02,219.93,484.51,219.93,482.3z M223.4,479.5c-1.51,0-2.26,1.27-2.31,2.36h4.64
				C225.72,480.8,225.02,479.5,223.4,479.5z"/>
			<path class="st44" d="M233.35,485.84v-1.05c-0.53,0.72-1.39,1.23-2.39,1.23c-1.85,0-3.15-1.41-3.15-3.71
				c0-2.26,1.29-3.72,3.15-3.72c0.95,0,1.82,0.47,2.39,1.25v-3.76h1.1v9.77H233.35z M233.35,483.92v-3.21
				c-0.4-0.62-1.25-1.14-2.12-1.14c-1.42,0-2.27,1.17-2.27,2.74c0,1.57,0.85,2.72,2.27,2.72
				C232.1,485.04,232.95,484.54,233.35,483.92z"/>
			<path class="st44" d="M239.69,485.84v-9.77h1.1v3.76c0.57-0.78,1.42-1.25,2.39-1.25c1.85,0,3.15,1.46,3.15,3.72
				c0,2.3-1.3,3.71-3.15,3.71c-1,0-1.86-0.51-2.39-1.23v1.05H239.69z M242.9,485.04c1.44,0,2.29-1.16,2.29-2.72
				c0-1.57-0.85-2.74-2.29-2.74c-0.86,0-1.73,0.53-2.11,1.14v3.21C241.17,484.54,242.04,485.04,242.9,485.04z"/>
			<path class="st44" d="M247.53,487.61c0.16,0.07,0.43,0.12,0.6,0.12c0.48,0,0.81-0.16,1.05-0.75l0.47-1.07l-2.96-7.15h1.19
				l2.36,5.8l2.34-5.8h1.2l-3.54,8.51c-0.42,1.02-1.14,1.42-2.08,1.44c-0.23,0-0.6-0.04-0.81-0.1L247.53,487.61z"/>
		</g>
	</g>
</g>
</svg>
